<?xml version="1.0" encoding="utf-8"?>
<!-- Generator: Adobe Illustrator 23.0.1, SVG Export Plug-In . SVG Version: 6.00 Build 0)  -->
<svg version="1.1" id="Vrstva_1" xmlns:serif="http://www.serif.com/"
	 xmlns="http://www.w3.org/2000/svg" xmlns:xlink="http://www.w3.org/1999/xlink" x="0px" y="0px" viewBox="0 0 1190.6 841.9"
	 style="enable-background:new 0 0 1190.6 841.9;" xml:space="preserve">
<style type="text/css">
	.st0{fill:#FFFE9E;}
</style>
<g>
	<g>
		<path class="st0" d="M595.3,657.7c-130.6,0-236.8-106.2-236.8-236.8s106.2-236.8,236.8-236.8s236.8,106.2,236.8,236.8
			S725.8,657.7,595.3,657.7z M595.3,236.8c-101.5,0-184.2,82.6-184.2,184.2s82.6,184.2,184.2,184.2s184.2-82.6,184.2-184.2
			S696.8,236.8,595.3,236.8z"/>
		<path class="st0" d="M595.3,131.5c-14.5,0-26.3-11.8-26.3-26.3V26.3C569,11.8,580.7,0,595.3,0s26.3,11.8,26.3,26.3v78.9
			C621.6,119.8,609.8,131.5,595.3,131.5z"/>
		<path class="st0" d="M595.3,841.9c-14.5,0-26.3-11.8-26.3-26.3v-78.9c0-14.5,11.8-26.3,26.3-26.3s26.3,11.8,26.3,26.3v78.9
			C621.6,830.1,609.8,841.9,595.3,841.9z"/>
		<path class="st0" d="M989.9,447.3H911c-14.5,0-26.3-11.8-26.3-26.3s11.8-26.3,26.3-26.3h78.9c14.5,0,26.3,11.8,26.3,26.3
			S1004.4,447.3,989.9,447.3z"/>
		<path class="st0" d="M279.6,447.3h-78.9c-14.5,0-26.3-11.8-26.3-26.3s11.8-26.3,26.3-26.3h78.9c14.5,0,26.3,11.8,26.3,26.3
			S294.1,447.3,279.6,447.3z"/>
		<path class="st0" d="M818.5,224c-23.2,0-35.2-28.3-18.6-44.9l55.8-55.8c10.3-10.3,26.9-10.3,37.2,0c10.3,10.3,10.3,26.9,0,37.2
			l-55.8,55.8C832,221.4,825.2,224,818.5,224z"/>
		<path class="st0" d="M316.2,726.3c-23.2,0-35.2-28.3-18.6-44.9l55.8-55.8c10.3-10.3,26.9-10.3,37.2,0c10.3,10.3,10.3,26.9,0,37.2
			l-55.8,55.8C329.7,723.7,323,726.3,316.2,726.3z"/>
		<path class="st0" d="M874.3,726.3c-6.7,0-13.5-2.6-18.6-7.7l-55.8-55.8c-10.3-10.3-10.3-26.9,0-37.2c10.3-10.3,26.9-10.3,37.2,0
			l55.8,55.8C909.6,698,897.6,726.3,874.3,726.3z"/>
		<path class="st0" d="M372,224c-6.7,0-13.5-2.6-18.6-7.7l-55.8-55.8c-10.3-10.3-10.3-26.9,0-37.2c10.3-10.3,26.9-10.3,37.2,0
			l55.8,55.8C407.3,195.7,395.3,224,372,224z"/>
	</g>
</g>
</svg>
