<?xml version="1.0" encoding="utf-8"?>
<!-- Generator: Adobe Illustrator 23.0.1, SVG Export Plug-In . SVG Version: 6.00 Build 0)  -->
<svg version="1.1" id="Layer_1" xmlns="http://www.w3.org/2000/svg" xmlns:xlink="http://www.w3.org/1999/xlink" x="0px" y="0px"
	 viewBox="0 0 512 512" style="enable-background:new 0 0 512 512;" xml:space="preserve">
<style type="text/css">
	.st0{fill:#FFFE9E;}
	.st1{fill:none;}
	.st2{fill:#F2F2F2;}
</style>
<g>
	<path class="st0" d="M328,80c8.8,0,16-7.2,16-16V32c0-8.8-7.2-16-16-16s-16,7.2-16,16v32C312,72.8,319.2,80,328,80z"/>
	<path class="st0" d="M496,184h-32c-8.8,0-16,7.2-16,16s7.2,16,16,16h32c8.8,0,16-7.2,16-16S504.8,184,496,184z"/>
	<path class="st0" d="M220.5,115.1c6.2,6.2,16.4,6.2,22.6,0s6.2-16.4,0-22.6l-22.6-22.6c-6.2-6.2-16.4-6.2-22.6,0
		c-6.2,6.2-6.2,16.4,0,22.6L220.5,115.1z"/>
	<path class="st0" d="M424.2,119.8c4.1,0,8.2-1.6,11.3-4.7l22.6-22.6c6.2-6.2,6.2-16.4,0-22.6c-6.2-6.2-16.4-6.2-22.6,0l-22.6,22.6
		C402.7,102.6,410,119.8,424.2,119.8L424.2,119.8z"/>
	<path class="st1" d="M400,200c0-39.7-32.3-72-72-72c-41.2,0-74.6,34.9-71.8,76.8c16.1,11.4,28.2,26.3,36.1,42.6
		c25.8-7.3,53.4-2.7,75.4,12.7C387.6,246.8,400,224.2,400,200z"/>
	<path class="st1" d="M388.5,364c-10.1,0-17.7-9.3-15.7-19.2c9.7-47.6-40.2-84.1-82.3-62.5c-8.9,4.5-19.7,0-22.6-9.6
		c-10-33.1-41.3-56.3-75.9-56.3c-46.4,0-83.2,39.8-79,86.4c0.8,8.9-5.8,16.7-14.7,17.4C61.1,323.1,32,354.7,32,392
		c0,39.7,32.3,72,72,72h286c27.6,0,50-22.4,50-50C440,387.7,419.3,364,388.5,364z"/>
	<path class="st0" d="M412.9,284.9c-6.2,6.2-6.2,16.4,0,22.6l22.6,22.6c6.2,6.2,16.4,6.2,22.6,0c6.2-6.2,6.2-16.4,0-22.6l-22.6-22.6
		C429.2,278.6,419.1,278.6,412.9,284.9z"/>
	<path class="st2" d="M406,333.6c0-18.5-5.5-35.8-15.5-50.5l-22.8-23.1c-22-15.4-49.6-20-75.4-12.7c-7.9-16.3-20-31.2-36.1-42.6
		l-31.6-15.5C154.8,168,84.1,218.5,80.8,290.6C34.3,301.2,0,342.8,0,392c0,57.3,46.7,104,104,104h286c45.2,0,82-36.8,82-82
		C472,374.3,443.6,341,406,333.6z M390,464H104c-39.7,0-72-32.3-72-72c0-37.3,29.1-68.9,66.3-71.8c8.9-0.7,15.5-8.5,14.7-17.4
		c-4.1-46.6,32.6-86.4,79-86.4c34.7,0,65.9,23.1,75.9,56.3c2.9,9.6,13.7,14.1,22.6,9.6c42.1-21.6,92,14.9,82.3,62.5
		c-2,9.9,5.5,19.2,15.7,19.2c30.8,0,51.5,23.7,51.5,50C440,441.6,417.6,464,390,464z"/>
	<path class="st0" d="M328,128c39.7,0,72,32.3,72,72c0,24.2-12.4,46.8-32.3,60.1c14.6,5.8,22.8,23.1,22.8,23.1
		c25.7-19.3,41.5-49.7,41.5-83.1c0-57.3-46.7-104-104-104c-53.7,0-98,40.9-103.4,93.2c0,0,17.6,3,31.6,15.5
		C253.4,162.9,286.8,128,328,128z"/>
	<path class="st2" d="M224.6,189.2l31.6,15.5C242.2,192.3,224.6,189.2,224.6,189.2z"/>
	<path class="st2" d="M367.7,260.1l22.8,23.1C390.5,283.1,382.3,265.9,367.7,260.1z"/>
</g>
</svg>
