<?xml version="1.0" encoding="utf-8"?>
<!-- Generator: Adobe Illustrator 23.0.1, SVG Export Plug-In . SVG Version: 6.00 Build 0)  -->
<svg version="1.1" id="Vrstva_1" xmlns:serif="http://www.serif.com/"
	 xmlns="http://www.w3.org/2000/svg" xmlns:xlink="http://www.w3.org/1999/xlink" x="0px" y="0px" viewBox="0 0 1190.6 841.9"
	 style="enable-background:new 0 0 1190.6 841.9;" xml:space="preserve">
<style type="text/css">
	.st0{fill:#F2F2F2;}
</style>
<g>
	<path class="st0" d="M871.5,698h-513c-101.5,0-184.2-82.6-184.2-184.2c0-88.6,62.4-162,144.8-179.9c3.9-105.4,90.8-190,197.2-190
		c79.8,0,147.2,46.9,178.6,113.5c102.3-30.4,204.5,47.6,202.9,153.7c67.3,12.4,118.4,71.5,118.4,142.3
		C1016.2,633.1,951.3,698,871.5,698z M516.3,196.5c-84.6,0-151.7,72.6-144.1,157.7c1.3,14.6-9.5,27.4-24.2,28.6
		c-67.9,5.3-121.1,62.9-121.1,131.1c0,72.5,59,131.5,131.5,131.5h513c50.8,0,92.1-41.3,92.1-92.1c0-47.8-37.4-92.1-94.7-92.1
		c-16.6,0-29.1-15.2-25.8-31.5c17.6-86.5-73-154.8-151.1-114.7c-14.6,7.5-32.4-0.1-37.2-15.8C636.5,238.7,579.6,196.5,516.3,196.5z"
		/>
</g>
</svg>
