<?xml version="1.0" encoding="utf-8"?>
<!-- Generator: Adobe Illustrator 23.0.1, SVG Export Plug-In . SVG Version: 6.00 Build 0)  -->
<svg version="1.1" id="Vrstva_1" xmlns:serif="http://www.serif.com/"
	 xmlns="http://www.w3.org/2000/svg" xmlns:xlink="http://www.w3.org/1999/xlink" x="0px" y="0px" viewBox="0 0 1190.6 841.9"
	 style="enable-background:new 0 0 1190.6 841.9;" xml:space="preserve">
<style type="text/css">
	.st0{fill:#F2F2F2;}
</style>
<g>
	<path class="st0" d="M907.7,324.1c0-98.3-93.9-168.2-187-141.7c-29.9-61.6-92.4-103.5-164.9-103.5c-98.1,0-178.4,77.6-182.9,174.6
		c-113.7,25.9-169.3,157.4-107.1,257c-2.6,9.3-4.1,19-4.4,28.9c-49.9,11.9-87.1,56.8-87.1,110.2c0,62.4,50.9,113.3,113.4,113.3H665
		c89.7,0,158.1-82.6,139.3-171.7h77.1c74.3,0,134.8-60.5,134.8-134.8C1016.2,390.4,969,336.2,907.7,324.1z M665,710.3H287.7
		c-33.5,0-60.8-27.2-60.8-60.6c0-31.7,24.8-60.6,62.7-60.6c16.6,0,29.1-15.2,25.8-31.5c-11.8-58.1,49.1-103.3,101.1-76.7
		c14.6,7.5,32.4-0.1,37.2-15.8c12.6-41.5,51.7-70.5,95.2-70.5c57.9,0,104.3,49.6,99.1,108.2c-1.3,14.6,9.6,27.4,24.2,28.6
		c46.3,3.6,82.7,42.9,82.7,89.3C754.8,670.1,714.5,710.3,665,710.3z M881.4,538.6H781.3c-19.7-27.8-48.3-47.4-80.7-55.7
		C694.9,404.3,629.1,342,548.9,342c-59.2,0-109.7,33.5-135,82.1c-41.3-10.2-85,1.6-115.7,31.8c-23.1-73.3,29.1-147.8,103.6-153.6
		c14.6-1.1,25.5-14,24.2-28.6c-6.8-76.1,53.2-142.1,129.9-142.1c57,0,108.3,38.1,124.9,92.6c4.8,15.7,22.6,23.3,37.2,15.8
		c69.5-35.7,151.1,25,135.3,102.8c-3.3,16.3,9.1,31.5,25.8,31.5c24.7,0,44.7,8.2,60.5,24.1C990.8,449.7,954.9,538.6,881.4,538.6z"/>
</g>
</svg>
