<?xml version="1.0" encoding="UTF-8" standalone="no"?>
<!DOCTYPE svg PUBLIC "-//W3C//DTD SVG 1.1//EN" "http://www.w3.org/Graphics/SVG/1.1/DTD/svg11.dtd">
<svg width="100%" height="100%" viewBox="0 0 512 512" version="1.1" xmlns="http://www.w3.org/2000/svg" xmlns:xlink="http://www.w3.org/1999/xlink" xml:space="preserve" xmlns:serif="http://www.serif.com/" style="fill-rule:evenodd;clip-rule:evenodd;stroke-linejoin:round;stroke-miterlimit:2;">
    <g>
        <path d="M423.672,336.341L112.282,336.341C50.646,336.341 0.501,286.196 0.501,224.56C0.501,170.785 38.37,126.22 88.41,115.338C90.748,51.343 143.539,0 208.094,0C256.539,0 297.433,28.488 316.502,68.864C378.62,50.396 440.602,97.75 439.63,162.138C480.467,169.665 511.5,205.532 511.5,248.513C511.5,296.941 472.1,336.341 423.672,336.341ZM208.094,31.937C156.758,31.937 116.047,76.029 120.622,127.635C121.404,136.469 114.827,144.272 105.959,144.964C64.732,148.186 32.438,183.148 32.438,224.56C32.438,268.586 68.256,304.404 112.282,304.404L423.672,304.404C454.49,304.404 479.563,279.331 479.563,248.513C479.563,219.509 456.862,192.623 422.071,192.623C411.995,192.623 404.412,183.378 406.422,173.476C417.085,120.983 362.09,79.529 314.729,103.831C305.875,108.374 295.046,103.79 292.157,94.253C281.039,57.563 246.471,31.937 208.094,31.937Z" style="fill:rgb(202,225,255);fill-rule:nonzero;"/>
        <path d="M311.879,456.109C300.144,456.109 292.265,443.681 297.608,432.996L329.545,369.121C333.49,361.232 343.083,358.036 350.969,361.979C358.858,365.923 362.055,375.515 358.111,383.403L326.174,447.278C323.377,452.875 317.736,456.109 311.879,456.109Z" style="fill:rgb(202,225,255);fill-rule:nonzero;"/>
        <path d="M455.597,456.109C443.862,456.109 435.984,443.681 441.326,432.996L473.264,369.121C477.208,361.232 486.8,358.036 494.688,361.979C502.576,365.923 505.773,375.515 501.83,383.403L469.892,447.278C467.095,452.875 461.454,456.109 455.597,456.109Z" style="fill:rgb(202,225,255);fill-rule:nonzero;"/>
        <path d="M168.161,456.109C156.426,456.109 148.547,443.681 153.89,432.996L185.827,369.121C189.77,361.232 199.364,358.036 207.251,361.979C215.14,365.923 218.336,375.515 214.393,383.403L182.456,447.278C179.658,452.875 174.017,456.109 168.161,456.109Z" style="fill:rgb(202,225,255);fill-rule:nonzero;"/>
        <path d="M24.442,456.109C12.707,456.109 4.829,443.681 10.171,432.996L42.109,369.121C46.052,361.232 55.646,358.036 63.533,361.979C71.421,365.923 74.618,375.515 70.675,383.403L38.737,447.278C35.94,452.875 30.299,456.109 24.442,456.109Z" style="fill:rgb(202,225,255);fill-rule:nonzero;"/>
        <path d="M216.067,512C204.332,512 196.453,499.571 201.796,488.886L233.733,425.011C237.677,417.123 247.27,413.926 255.157,417.869C263.046,421.814 266.242,431.406 262.299,439.293L230.362,503.168C227.564,508.765 221.923,512 216.067,512Z" style="fill:rgb(202,225,255);fill-rule:nonzero;"/>
        <path d="M359.785,512C348.05,512 340.172,499.571 345.514,488.886L377.452,425.011C381.396,417.123 390.988,413.926 398.876,417.869C406.764,421.814 409.961,431.406 406.018,439.293L374.08,503.168C371.283,508.765 365.642,512 359.785,512Z" style="fill:rgb(202,225,255);fill-rule:nonzero;"/>
        <path d="M72.348,512C60.613,512 52.735,499.571 58.077,488.886L90.015,425.011C93.959,417.123 103.551,413.926 111.439,417.869C119.327,421.814 122.524,431.406 118.581,439.293L86.643,503.168C83.846,508.765 78.205,512 72.348,512Z" style="fill:rgb(202,225,255);fill-rule:nonzero;"/>
    </g>
</svg>
