<?xml version="1.0" encoding="UTF-8" standalone="no"?>
<!DOCTYPE svg PUBLIC "-//W3C//DTD SVG 1.1//EN" "http://www.w3.org/Graphics/SVG/1.1/DTD/svg11.dtd">
<svg width="100%" height="100%" viewBox="0 0 512 512" version="1.1" xmlns="http://www.w3.org/2000/svg" xmlns:xlink="http://www.w3.org/1999/xlink" xml:space="preserve" xmlns:serif="http://www.serif.com/" style="fill-rule:evenodd;clip-rule:evenodd;stroke-linejoin:round;stroke-miterlimit:2;">
    <g>
        <path d="M439.63,162.139C440.597,98.045 378.931,50.305 316.502,68.864C297.436,28.495 256.547,0 208.094,0C143.538,0 90.747,51.344 88.408,115.339C38.306,126.234 0.499,170.852 0.499,224.561C0.499,286.198 50.644,336.343 112.281,336.343L423.673,336.343C472.101,336.343 511.501,296.943 511.501,248.515C511.501,205.534 480.468,169.665 439.63,162.139ZM423.673,304.405L112.281,304.405C68.255,304.405 32.437,268.587 32.437,224.561C32.437,183.149 64.731,148.187 105.958,144.966C114.798,144.276 121.405,136.497 120.62,127.637C116.05,76.08 156.711,31.938 208.094,31.938C246.471,31.938 281.039,57.564 292.157,94.254C295.043,103.776 305.864,108.38 314.73,103.831C361.578,79.793 417.205,120.398 406.423,173.477C404.419,183.352 411.967,192.624 422.073,192.624C456.713,192.624 479.564,219.352 479.564,248.515C479.563,279.332 454.49,304.405 423.673,304.405Z" style="fill:rgb(202,225,255);fill-rule:nonzero;"/>
        <path d="M256,360.296C247.181,360.296 240.031,367.446 240.031,376.265L240.031,408.203C240.031,417.022 247.181,424.172 256,424.172C264.819,424.172 271.969,417.022 271.969,408.203L271.969,376.265C271.969,367.446 264.819,360.296 256,360.296Z" style="fill:rgb(202,225,255);fill-rule:nonzero;"/>
        <path d="M383.75,360.296C374.932,360.296 367.782,367.446 367.782,376.265L367.782,408.203C367.782,417.022 374.932,424.172 383.75,424.172C392.569,424.172 399.719,417.022 399.719,408.203L399.719,376.265C399.719,367.446 392.569,360.296 383.75,360.296Z" style="fill:rgb(202,225,255);fill-rule:nonzero;"/>
        <path d="M128.25,360.296C119.431,360.296 112.281,367.446 112.281,376.265L112.281,408.203C112.281,417.022 119.431,424.172 128.25,424.172C137.068,424.172 144.218,417.022 144.218,408.203L144.218,376.265C144.218,367.446 137.068,360.296 128.25,360.296Z" style="fill:rgb(202,225,255);fill-rule:nonzero;"/>
        <path d="M192.125,448.125C183.306,448.125 176.156,455.275 176.156,464.094L176.156,496.031C176.156,504.85 183.306,512 192.125,512C200.944,512 208.094,504.85 208.094,496.031L208.094,464.094C208.094,455.275 200.944,448.125 192.125,448.125Z" style="fill:rgb(202,225,255);fill-rule:nonzero;"/>
        <path d="M319.875,448.125C311.056,448.125 303.906,455.275 303.906,464.094L303.906,496.031C303.906,504.85 311.056,512 319.875,512C328.694,512 335.844,504.85 335.844,496.031L335.844,464.094C335.844,455.275 328.694,448.125 319.875,448.125Z" style="fill:rgb(202,225,255);fill-rule:nonzero;"/>
        <path d="M447.626,448.125C438.807,448.125 431.657,455.275 431.657,464.094L431.657,496.031C431.657,504.85 438.807,512 447.626,512C456.445,512 463.595,504.85 463.595,496.031L463.595,464.094C463.595,455.275 456.445,448.125 447.626,448.125Z" style="fill:rgb(202,225,255);fill-rule:nonzero;"/>
        <path d="M64.374,448.125C55.555,448.125 48.405,455.275 48.405,464.094L48.405,496.031C48.405,504.85 55.555,512 64.374,512C73.193,512 80.343,504.85 80.343,496.031L80.343,464.094C80.343,455.275 73.193,448.125 64.374,448.125Z" style="fill:rgb(202,225,255);fill-rule:nonzero;"/>
    </g>
</svg>
