<?xml version="1.0" encoding="utf-8"?>
<!-- Generator: Adobe Illustrator 23.0.1, SVG Export Plug-In . SVG Version: 6.00 Build 0)  -->
<svg version="1.1" id="Vrstva_1" xmlns:serif="http://www.serif.com/"
	 xmlns="http://www.w3.org/2000/svg" xmlns:xlink="http://www.w3.org/1999/xlink" x="0px" y="0px" viewBox="0 0 1190.6 841.9"
	 style="enable-background:new 0 0 1190.6 841.9;" xml:space="preserve">
<style type="text/css">
	.st0{fill:none;}
	.st1{fill:#C1AED1;}
	.st2{fill:#FFFE9E;}
</style>
<g>
	<path class="st0" d="M569,526.8V446c-22.6,41.5-71.2,130.5-87.1,159.6h113.3c14.5,0,26.3,11.8,26.3,26.3v80.8l87.1-159.6H595.3
		C580.8,553.1,569,541.3,569,526.8z"/>
	<path class="st0" d="M601.8,317.5c11.6,3,19.8,13.4,19.8,25.4v157.5h169H871c50.7,0,91.9-41.2,91.9-91.9
		c0-47.8-37.2-91.9-94.5-91.9c-16.7,0-29-15.3-25.7-31.5c17.5-86.4-73-154.4-150.8-114.5c-14.6,7.5-32.4-0.1-37.1-15.8
		C636.5,94.7,579.6,52.5,516.5,52.5c-83.8,0-151.4,71.9-143.8,157.4c1.3,14.6-9.6,27.3-24.1,28.5c-67.8,5.3-120.9,62.8-120.9,130.9
		c0,72.6,58.7,131.3,131.3,131.3h120.5l92.8-170.1C578,319.9,590.2,314.6,601.8,317.5z"/>
	<path class="st1" d="M897.2,266.6c1.5-106.4-101-183.7-202.5-153.4C663.3,46.7,596,0,516.5,0c-106.2,0-193,84.4-196.8,189.7
		C179.9,220.1,125.3,395.6,229,499.2c34.7,34.7,80.9,53.8,130,53.8h91.8l28.6-52.5H359c-72.5,0-131.3-58.7-131.3-131.3
		c0-68.1,53.1-125.6,120.9-130.9c14.5-1.1,25.4-13.9,24.1-28.5c-7.5-85.5,60-157.4,143.8-157.4c63.1,0,119.9,42.1,138.2,102.5
		c4.8,15.7,22.6,23.2,37.1,15.8c77.8-39.9,168.3,28.1,150.8,114.5c-3.3,16.2,9.1,31.5,25.7,31.5c57.3,0,94.5,44.1,94.5,91.9
		c0,50.7-41.2,91.9-91.9,91.9H754.5l13.9,52.5H871c79.6,0,144.4-64.8,144.4-144.4C1015.4,337.3,963.9,278.8,897.2,266.6z"/>
	<path class="st2" d="M621.6,500.5V343c0-12-8.1-22.5-19.8-25.4c-11.6-3-23.8,2.3-29.5,12.9l-92.8,170.1l-28.6,52.5l-36.1,66.2
		c-9.5,17.5,3.1,38.8,23.1,38.8H569v157c0,11.2,6.9,21.5,17.5,25.3c12.2,4.3,25.7-0.9,31.8-12.2l150.1-275.2l12.4-29.4
		c4.6-11-3.4-23.1-15.3-23.1H621.6z M621.6,712.7v-80.8c0-14.5-11.8-26.3-26.3-26.3H482c15.9-29.1,64.4-118.1,87.1-159.6v80.8
		c0,14.5,11.8,26.3,26.3,26.3h113.3L621.6,712.7z"/>
</g>
</svg>
