<?xml version="1.0" encoding="utf-8"?>
<!-- Generator: Adobe Illustrator 23.0.1, SVG Export Plug-In . SVG Version: 6.00 Build 0)  -->
<svg version="1.1" id="Vrstva_1" xmlns:serif="http://www.serif.com/"
	 xmlns="http://www.w3.org/2000/svg" xmlns:xlink="http://www.w3.org/1999/xlink" x="0px" y="0px" viewBox="0 0 1190.6 841.9"
	 style="enable-background:new 0 0 1190.6 841.9;" xml:space="preserve">
<style type="text/css">
	.st0{fill:#C7CEE5;}
</style>
<g>
	<path class="st0" d="M887.8,559.5l-53.6-31l64.4-17.3c14-3.8,22.4-18.2,18.6-32.2c-3.8-14-18.2-22.4-32.2-18.6l-115.3,30.9
		l-61.5-35.5c7-22.7,7.1-47.4-0.2-70.6l61.7-35.6c124.5,33.4,117.2,31.8,122.1,31.8c11.6,0,22.2-7.8,25.4-19.5
		c3.8-14-4.6-28.5-18.6-32.2l-64.4-17.3l53.6-31c8.2,4.7,17.4,7.1,26.4,7.1c40,0,65.8-43.8,45.5-79c-14.5-25.2-46.7-33.8-71.9-19.3
		c-16.8,9.7-26.2,27.4-26.3,45.5l-53.6,31l17.3-64.4c3.8-14-4.6-28.5-18.6-32.2c-14-3.8-28.5,4.6-32.2,18.6l-30.9,115.3L681.3,340
		c-15.9-16.9-36.6-29.1-59.9-34.4v-72.7l84.4-84.4c10.3-10.3,10.3-26.9,0-37.2c-10.3-10.3-26.9-10.3-37.2,0l-47.2,47.2V98.2
		c15.7-9.1,26.3-26.1,26.3-45.5c0-29-23.6-52.6-52.6-52.6c-29,0-52.6,23.6-52.6,52.6c0,19.4,10.6,36.4,26.3,45.5v60.3l-47.2-47.2
		c-10.3-10.3-26.9-10.3-37.2,0c-10.3,10.3-10.3,26.9,0,37.2l84.4,84.4v72.7c-23.6,5.4-44.5,17.8-60.4,34.9l-63-36.4l-30.9-115.3
		c-3.8-14-18.2-22.4-32.2-18.6c-14,3.8-22.4,18.2-18.6,32.2l17.3,64.4l-52.2-30.2c-0.1-34.4-32.5-59.8-66.2-50.8
		c-45.2,12.1-53,73.1-12.7,96.4c17,9.8,36.9,9,52.6,0l52.2,30.1l-64.4,17.3c-14,3.8-22.4,18.2-18.6,32.2c3.7,14,18.1,22.4,32.2,18.6
		l115.3-30.9L482,386c-6.8,22-7.2,46.2-0.2,69.2l-62.7,36.2l-115.3-30.9c-14-3.8-28.5,4.6-32.2,18.6c-3.8,14,4.6,28.5,18.6,32.2
		l64.4,17.3l-52.2,30.1c-15.8-9.1-35.7-9.7-52.6,0c-40.3,23.3-32.5,84.3,12.7,96.4c33.5,9,66.1-16.3,66.2-50.8l52.2-30.2l-17.3,64.4
		c-3.8,14,4.6,28.5,18.6,32.2c14.1,3.8,28.5-4.6,32.2-18.6l30.9-115.3l62.5-36.1c16,17.4,37.1,30,60.9,35.5v71l-84.4,84.4
		c-10.3,10.3-10.3,26.9,0,37.2c10.3,10.3,26.9,10.3,37.2,0l47.2-47.2v62c-15.7,9.1-26.3,26.1-26.3,45.5c0,29,23.6,52.6,52.6,52.6
		c29,0,52.6-23.6,52.6-52.6c0-19.4-10.6-36.4-26.3-45.5v-62l47.2,47.2c5.1,5.1,11.9,7.7,18.6,7.7c23.2,0,35.2-28.3,18.6-44.9
		l-84.4-84.4v-71c23.6-5.4,44.5-17.8,60.4-34.9l61.5,35.5l30.9,115.3c3.2,11.8,13.8,19.5,25.4,19.5c17.3,0,29.9-16.4,25.4-33.1
		l-17.3-64.4l53.7,31c0.1,29.6,24.1,52.6,52.5,52.6c18,0,35.8-9.2,45.7-26.3C986.3,585.3,934.6,532.6,887.8,559.5z M595.1,486.7
		c-36.3,0-65.8-29.5-65.8-65.8s29.5-65.8,65.8-65.8s65.8,29.5,65.8,65.8S631.4,486.7,595.1,486.7z"/>
</g>
</svg>
