<?xml version="1.0" encoding="utf-8"?>
<!-- Generator: Adobe Illustrator 23.0.1, SVG Export Plug-In . SVG Version: 6.00 Build 0)  -->
<svg version="1.1" id="Vrstva_1" xmlns:serif="http://www.serif.com/"
	 xmlns="http://www.w3.org/2000/svg" xmlns:xlink="http://www.w3.org/1999/xlink" x="0px" y="0px" viewBox="0 0 1190.6 841.9"
	 style="enable-background:new 0 0 1190.6 841.9;" xml:space="preserve">
<style type="text/css">
	.st0{fill:#DFDFDF;}
</style>
<g>
	<path class="st0" d="M1151.7,450.4c-100.1,0-103.8,37.2-185.8,37.2c-81.7,0-85.7-37.2-185.8-37.2c-100.1,0-103.8,37.2-185.8,37.2
		c-80.7,0-86.4-37.2-185.7-37.2c-43.9,0-70.8,7.7-91.2,15.2c-19.3,7.1-29.1,28.4-22,47.7c7.1,19.3,28.4,29.1,47.7,22
		c17.3-6.4,35.1-10.6,65.5-10.6c81.7,0,85.5,37.2,185.7,37.2c100.1,0,103.8-37.2,185.8-37.2c81.7,0,85.6,37.2,185.8,37.2
		c100.1,0,103.8-37.2,185.8-37.2c20.5,0,37.2-16.6,37.2-37.2S1172.3,450.4,1151.7,450.4z"/>
	<path class="st0" d="M37.2,524.7c70.8,0,77.9,25.1,143.5,34.4c20.4,2.9,39.1-11.3,42-31.6c2.9-20.3-11.3-39.1-31.6-42
		c-50.5-7.1-68-35.1-153.9-35.1C16.6,450.4,0,467,0,487.5S16.6,524.7,37.2,524.7z"/>
	<path class="st0" d="M1151.7,580.4c-16.1,0-30.6,1-44.4,3.1c-20.3,3-34.3,21.9-31.3,42.2c3,20.3,22,34.3,42.2,31.3
		c10.1-1.5,21-2.2,33.4-2.2c20.5,0,37.2-16.6,37.2-37.2C1188.9,597,1172.3,580.4,1151.7,580.4z"/>
	<path class="st0" d="M966,691.9c25.7,0,40.1-19,39.5-38.3c-0.6-20.5-17.7-36.6-38.2-36c-71.8,2.2-84.3-31.5-166.2-36.5
		c-20.5-1.3-38.1,14.3-39.4,34.8s14.3,38.1,34.8,39.4C861.2,659.1,872.8,691.9,966,691.9z"/>
	<path class="st0" d="M37.2,654.7c81.7,0,85.7,37.2,185.8,37.2c100.1,0,103.8-37.2,185.8-37.2c81.7,0,85.5,37.2,185.7,37.2
		c27.3,0,50.2-2.8,71.9-8.9c19.8-5.5,31.3-26,25.8-45.8c-5.5-19.8-26-31.3-45.8-25.8c-15,4.2-31.5,6.2-51.9,6.2
		c-80.7,0-86.4-37.2-185.7-37.2c-100.1,0-103.8,37.2-185.8,37.2c-81.7,0-85.7-37.2-185.8-37.2C16.6,580.4,0,597,0,617.5
		C0,638.1,16.6,654.7,37.2,654.7z"/>
	<path class="st0" d="M1151.7,710.4c-100.1,0-103.8,37.2-185.8,37.2c-81.7,0-85.7-37.2-185.8-37.2c-94,0-104.5,33.1-171,36.8
		c-19.8,0.8-35.5,17.1-35.5,37.1c0,21.3,17.9,38.2,39.1,37.1c83-4.4,91-36.7,167.4-36.7c81.7,0,85.6,37.2,185.8,37.2
		c100.1,0,103.8-37.2,185.8-37.2c20.5,0,37.2-16.6,37.2-37.2C1188.9,727.1,1172.3,710.4,1151.7,710.4z"/>
	<path class="st0" d="M474.5,717.8c-19.7-4.9-41.2-7.3-65.8-7.3c-100.1,0-103.8,37.2-185.8,37.2c-81.7,0-85.7-37.2-185.8-37.2
		C16.6,710.4,0,727.1,0,747.6c0,20.5,16.6,37.2,37.2,37.2c81.7,0,85.7,37.2,185.8,37.2s103.8-37.2,185.8-37.2
		c18.6,0,33.8,1.6,47.7,5.1c19.9,5,40.1-7.1,45.1-27C506.5,742.9,494.4,722.8,474.5,717.8z"/>
</g>
<g>
	<path class="st0" d="M1151.7,41.7c-100.1,0-103.8,37.2-185.8,37.2c-81.7,0-85.7-37.2-185.8-37.2c-100.1,0-103.8,37.2-185.8,37.2
		c-80.7,0-86.4-37.2-185.7-37.2c-43.9,0-70.8,7.7-91.2,15.2c-19.3,7.1-29.1,28.4-22,47.7c7.1,19.3,28.4,29.1,47.7,22
		c17.3-6.4,35.1-10.6,65.5-10.6c81.7,0,85.5,37.2,185.7,37.2c100.1,0,103.8-37.2,185.8-37.2c81.7,0,85.6,37.2,185.8,37.2
		c100.1,0,103.8-37.2,185.8-37.2c20.5,0,37.2-16.6,37.2-37.2S1172.3,41.7,1151.7,41.7z"/>
	<path class="st0" d="M37.2,116c70.8,0,77.9,25.1,143.5,34.4c20.4,2.9,39.1-11.3,42-31.6c2.9-20.3-11.3-39.1-31.6-42
		c-50.5-7.1-68-35.1-153.9-35.1C16.6,41.7,0,58.3,0,78.8S16.6,116,37.2,116z"/>
	<path class="st0" d="M1151.7,171.7c-16.1,0-30.6,1-44.4,3.1c-20.3,3-34.3,21.9-31.3,42.2c3,20.3,22,34.3,42.2,31.3
		c10.1-1.5,21-2.2,33.4-2.2c20.5,0,37.2-16.6,37.2-37.2S1172.3,171.7,1151.7,171.7z"/>
	<path class="st0" d="M966,283.2c25.7,0,40.1-19,39.5-38.3c-0.6-20.5-17.7-36.6-38.2-36c-71.8,2.2-84.3-31.5-166.2-36.5
		c-20.5-1.3-38.1,14.3-39.4,34.8s14.3,38.1,34.8,39.4C861.2,250.5,872.8,283.2,966,283.2z"/>
	<path class="st0" d="M37.2,246c81.7,0,85.7,37.2,185.8,37.2c100.1,0,103.8-37.2,185.8-37.2c81.7,0,85.5,37.2,185.7,37.2
		c27.3,0,50.2-2.8,71.9-8.9c19.8-5.5,31.3-26,25.8-45.8c-5.5-19.8-26-31.3-45.8-25.8c-15,4.2-31.5,6.2-51.9,6.2
		c-80.7,0-86.4-37.2-185.7-37.2c-100.1,0-103.8,37.2-185.8,37.2c-81.7,0-85.7-37.2-185.8-37.2C16.6,171.7,0,188.4,0,208.9
		S16.6,246,37.2,246z"/>
	<path class="st0" d="M1151.7,301.8c-100.1,0-103.8,37.2-185.8,37.2c-81.7,0-85.7-37.2-185.8-37.2c-94,0-104.5,33.1-171,36.8
		c-19.8,0.8-35.5,17.1-35.5,37.1c0,21.3,17.9,38.2,39.1,37.1c83-4.4,91-36.7,167.4-36.7c81.7,0,85.6,37.2,185.8,37.2
		c100.1,0,103.8-37.2,185.8-37.2c20.5,0,37.2-16.6,37.2-37.2C1188.9,318.4,1172.3,301.8,1151.7,301.8z"/>
	<path class="st0" d="M474.5,309.1c-19.7-4.9-41.2-7.3-65.8-7.3c-100.1,0-103.8,37.2-185.8,37.2c-81.7,0-85.7-37.2-185.8-37.2
		C16.6,301.8,0,318.4,0,338.9c0,20.5,16.6,37.2,37.2,37.2c81.7,0,85.7,37.2,185.8,37.2s103.8-37.2,185.8-37.2
		c18.6,0,33.8,1.6,47.7,5.1c19.9,5,40.1-7.1,45.1-27C506.5,334.2,494.4,314.1,474.5,309.1z"/>
</g>
</svg>
