<?xml version="1.0" encoding="UTF-8" standalone="no"?>
<!DOCTYPE svg PUBLIC "-//W3C//DTD SVG 1.1//EN" "http://www.w3.org/Graphics/SVG/1.1/DTD/svg11.dtd">
<svg width="100%" height="100%" viewBox="0 0 512 512" version="1.1" xmlns="http://www.w3.org/2000/svg" xmlns:xlink="http://www.w3.org/1999/xlink" xml:space="preserve" xmlns:serif="http://www.serif.com/" style="fill-rule:evenodd;clip-rule:evenodd;stroke-linejoin:round;stroke-miterlimit:2;">
    <g>
        <path d="M448.621,100.466C417.799,60.91 387.231,36.486 385.944,35.466C380.12,30.846 371.881,30.846 366.056,35.466C348.575,49.332 321.63,76.334 300.11,104.73C253.2,43.388 204.042,5.085 201.783,3.339C196.02,-1.113 187.979,-1.114 182.217,3.339C180.359,4.775 136.189,39.152 91.506,95.005C39.777,159.667 0,237.556 0,320C0,425.87 86.131,512 192,512C269.779,512 336.606,465.794 366.736,399.67C445.965,405.153 512,340.576 512,260.8C512,209.12 490.084,153.677 448.621,100.466ZM192,480C103.776,480 32,408.224 32,320C32,212.891 111.582,105.665 192.005,36.752C209.306,51.569 246.695,85.874 280.941,132.514C254.062,175.638 240,219.424 240,260.8C240,322.657 279.628,375.21 334.26,393.284C307.077,445.8 251.986,480 192,480ZM376,368C318.654,368 272,319.91 272,260.8C272,171.753 348.242,94.378 376,69.165C403.768,94.389 480,171.76 480,260.8C480,319.911 433.346,368 376,368Z" style="fill-rule:nonzero;"/>
    </g>
</svg>
